<?xml version="1.0" standalone="no"?>
<!DOCTYPE svg PUBLIC "-//W3C//DTD SVG 20010904//EN"
 "http://www.w3.org/TR/2001/REC-SVG-20010904/DTD/svg10.dtd">
<svg version="1.0" xmlns="http://www.w3.org/2000/svg"
 width="512.000000pt" height="512.000000pt" viewBox="0 0 512.000000 512.000000"
 preserveAspectRatio="xMidYMid meet">
<metadata>
Created by potrace 1.11, written by Peter Selinger 2001-2013
</metadata>
<g transform="translate(0.000000,512.000000) scale(0.100000,-0.100000)"
fill="#000000" stroke="none">
<path d="M0 2560 l0 -2560 2560 0 2560 0 0 2560 0 2560 -2560 0 -2560 0 0
-2560z m2690 1583 c0 -10 -5 -47 -10 -83 -5 -36 -38 -285 -74 -555 -36 -269
-70 -521 -76 -560 -11 -76 -89 -660 -120 -895 -34 -254 -30 -240 -60 -255 -38
-20 -248 -79 -366 -104 -265 -54 -595 -66 -774 -26 -158 35 -286 119 -343 223
-48 89 -61 161 -60 332 3 437 144 830 361 1005 74 60 236 139 335 164 108 28
250 41 446 41 l167 0 43 343 c23 188 45 352 48 365 l5 22 239 0 c221 0 239 -1
239 -17z m990 -693 c303 -27 468 -129 531 -330 60 -190 17 -608 -90 -885 -50
-130 -115 -231 -206 -322 -71 -70 -98 -89 -196 -137 -176 -86 -236 -97 -536
-103 -139 -3 -253 -6 -254 -7 0 0 -22 -163 -48 -361 l-46 -360 -244 -3 -243
-2 6 37 c4 21 24 173 46 338 22 165 44 332 50 370 5 39 39 291 75 560 36 270
77 573 91 675 14 102 30 223 36 270 6 47 15 91 20 97 11 14 148 60 273 92 162
41 400 74 580 80 22 0 92 -4 155 -9z"/>
<path d="M1425 3168 c-4 -13 -166 -1226 -165 -1240 0 -5 148 -8 328 -8 l328 0
12 88 c39 281 152 1140 152 1154 0 17 -22 18 -325 18 -252 0 -327 -3 -330 -12z"/>
<path d="M3125 3168 c-5 -15 -165 -1220 -165 -1243 0 -13 39 -15 325 -15 252
0 327 3 330 13 5 14 165 1217 165 1240 0 16 -29 17 -325 17 -252 0 -327 -3
-330 -12z"/>
</g>
</svg>
